<mxfile host="Electron" agent="Mozilla/5.0 (Windows NT 10.0; Win64; x64) AppleWebKit/537.36 (KHTML, like Gecko) draw.io/24.7.8 Chrome/128.0.6613.36 Electron/32.0.1 Safari/537.36" version="24.7.8">
  <diagram name="Strona-1" id="I16luJ8rkfJsOQ3Vqchh">
    <mxGraphModel dx="615" dy="2349" grid="1" gridSize="10" guides="1" tooltips="1" connect="1" arrows="1" fold="1" page="1" pageScale="1" pageWidth="827" pageHeight="1169" math="0" shadow="0">
      <root>
        <mxCell id="0" />
        <mxCell id="1" parent="0" />
        <mxCell id="x6U_2Op7EyfoT4MYC56a-3" value="Zarządzanie zgłoszeniami potrzeb" style="html=1;dropTarget=0;whiteSpace=wrap;" parent="1" vertex="1">
          <mxGeometry x="1277" y="-840" width="180" height="90" as="geometry" />
        </mxCell>
        <mxCell id="x6U_2Op7EyfoT4MYC56a-4" value="" style="shape=module;jettyWidth=8;jettyHeight=4;" parent="x6U_2Op7EyfoT4MYC56a-3" vertex="1">
          <mxGeometry x="1" width="20" height="20" relative="1" as="geometry">
            <mxPoint x="-27" y="7" as="offset" />
          </mxGeometry>
        </mxCell>
        <mxCell id="x6U_2Op7EyfoT4MYC56a-7" value="Repozytorium zgłoszeń" style="html=1;dropTarget=0;whiteSpace=wrap;" parent="1" vertex="1">
          <mxGeometry x="1581" y="-840" width="180" height="90" as="geometry" />
        </mxCell>
        <mxCell id="x6U_2Op7EyfoT4MYC56a-8" value="" style="shape=module;jettyWidth=8;jettyHeight=4;" parent="x6U_2Op7EyfoT4MYC56a-7" vertex="1">
          <mxGeometry x="1" width="20" height="20" relative="1" as="geometry">
            <mxPoint x="-27" y="7" as="offset" />
          </mxGeometry>
        </mxCell>
        <mxCell id="x6U_2Op7EyfoT4MYC56a-11" value="" style="rounded=0;orthogonalLoop=1;jettySize=auto;html=1;endArrow=halfCircle;endFill=0;endSize=6;strokeWidth=1;sketch=0;exitX=1;exitY=0.5;exitDx=0;exitDy=0;" parent="1" source="x6U_2Op7EyfoT4MYC56a-3" target="x6U_2Op7EyfoT4MYC56a-13" edge="1">
          <mxGeometry relative="1" as="geometry">
            <mxPoint x="1377" y="-665" as="sourcePoint" />
          </mxGeometry>
        </mxCell>
        <mxCell id="x6U_2Op7EyfoT4MYC56a-12" value="" style="rounded=0;orthogonalLoop=1;jettySize=auto;html=1;endArrow=oval;endFill=0;sketch=0;sourcePerimeterSpacing=0;targetPerimeterSpacing=0;endSize=10;exitX=0;exitY=0.5;exitDx=0;exitDy=0;" parent="1" source="x6U_2Op7EyfoT4MYC56a-7" target="x6U_2Op7EyfoT4MYC56a-13" edge="1">
          <mxGeometry relative="1" as="geometry">
            <mxPoint x="1367" y="-660" as="sourcePoint" />
          </mxGeometry>
        </mxCell>
        <mxCell id="x6U_2Op7EyfoT4MYC56a-13" value="" style="ellipse;whiteSpace=wrap;html=1;align=center;aspect=fixed;fillColor=none;strokeColor=none;resizable=0;perimeter=centerPerimeter;rotatable=0;allowArrows=0;points=[];outlineConnect=1;" parent="1" vertex="1">
          <mxGeometry x="1517" y="-800" width="10" height="10" as="geometry" />
        </mxCell>
        <mxCell id="x6U_2Op7EyfoT4MYC56a-15" value="JpaRepository" style="text;html=1;align=center;verticalAlign=middle;whiteSpace=wrap;rounded=0;" parent="1" vertex="1">
          <mxGeometry x="1482" y="-840" width="80" height="30" as="geometry" />
        </mxCell>
        <mxCell id="x6U_2Op7EyfoT4MYC56a-16" value="&lt;font style=&quot;font-size: 20px;&quot;&gt;Projektanci:&lt;/font&gt;&lt;div style=&quot;font-size: 20px;&quot;&gt;&lt;font style=&quot;font-size: 20px;&quot;&gt;•&amp;nbsp;&lt;span style=&quot;background-color: initial;&quot;&gt;Magdalena Ożarek&lt;br&gt;&lt;/span&gt;•&amp;nbsp;&lt;span style=&quot;background-color: initial;&quot;&gt;Wojeciech Błyskal&lt;/span&gt;&lt;/font&gt;&lt;/div&gt;" style="shape=note;whiteSpace=wrap;html=1;backgroundOutline=1;darkOpacity=0.05;fillColor=#fff2cc;strokeColor=#d6b656;align=left;spacingLeft=15;spacingBottom=0;" parent="1" vertex="1">
          <mxGeometry x="827" y="-1169" width="240" height="180" as="geometry" />
        </mxCell>
        <mxCell id="x6U_2Op7EyfoT4MYC56a-19" value="Założenia:&lt;br&gt;• moduł zapewnia funkcjonalność zgłaszania potrzeb przez poszkodowanych&lt;br&gt;• umożliwia tworzenie zadań (elementarnych obiektów realizacji pomocy [Patrz slajd 13, use case: Realizuj zadanie ] ) na podstawie zgłoszeń&lt;br&gt;&lt;br&gt;Moduł obejmuje implementację interfejsu graficznego, formularza zgłoszeń, walidację danych przekazanych przez użytkownika, obsługę utrwalania danych, a także definicję odpowiednich punktów końcowych i wywołań w kontrolerze (Web Controller)." style="shape=note;size=20;whiteSpace=wrap;html=1;fillColor=#fff2cc;strokeColor=#d6b656;align=left;spacingLeft=5;" parent="1" vertex="1">
          <mxGeometry x="1481" y="-1169" width="280" height="280" as="geometry" />
        </mxCell>
        <mxCell id="x6U_2Op7EyfoT4MYC56a-20" value="Web Controller" style="html=1;dropTarget=0;whiteSpace=wrap;" parent="1" vertex="1">
          <mxGeometry x="827" y="-756" width="180" height="90" as="geometry" />
        </mxCell>
        <mxCell id="x6U_2Op7EyfoT4MYC56a-21" value="" style="shape=module;jettyWidth=8;jettyHeight=4;" parent="x6U_2Op7EyfoT4MYC56a-20" vertex="1">
          <mxGeometry x="1" width="20" height="20" relative="1" as="geometry">
            <mxPoint x="-27" y="7" as="offset" />
          </mxGeometry>
        </mxCell>
        <mxCell id="x6U_2Op7EyfoT4MYC56a-22" value="Zarządzanie zadaniami" style="html=1;dropTarget=0;whiteSpace=wrap;" parent="1" vertex="1">
          <mxGeometry x="1277" y="-656" width="180" height="90" as="geometry" />
        </mxCell>
        <mxCell id="x6U_2Op7EyfoT4MYC56a-23" value="" style="shape=module;jettyWidth=8;jettyHeight=4;" parent="x6U_2Op7EyfoT4MYC56a-22" vertex="1">
          <mxGeometry x="1" width="20" height="20" relative="1" as="geometry">
            <mxPoint x="-27" y="7" as="offset" />
          </mxGeometry>
        </mxCell>
        <mxCell id="x6U_2Op7EyfoT4MYC56a-24" value="" style="rounded=0;orthogonalLoop=1;jettySize=auto;html=1;endArrow=halfCircle;endFill=0;endSize=6;strokeWidth=1;sketch=0;exitX=1;exitY=0.75;exitDx=0;exitDy=0;" parent="1" source="x6U_2Op7EyfoT4MYC56a-20" target="x6U_2Op7EyfoT4MYC56a-26" edge="1">
          <mxGeometry relative="1" as="geometry">
            <mxPoint x="944" y="-811" as="sourcePoint" />
          </mxGeometry>
        </mxCell>
        <mxCell id="x6U_2Op7EyfoT4MYC56a-25" value="" style="rounded=0;orthogonalLoop=1;jettySize=auto;html=1;endArrow=oval;endFill=0;sketch=0;sourcePerimeterSpacing=0;targetPerimeterSpacing=0;endSize=10;exitX=0;exitY=0.5;exitDx=0;exitDy=0;" parent="1" source="x6U_2Op7EyfoT4MYC56a-22" target="x6U_2Op7EyfoT4MYC56a-26" edge="1">
          <mxGeometry relative="1" as="geometry">
            <mxPoint x="1284" y="-871" as="sourcePoint" />
          </mxGeometry>
        </mxCell>
        <mxCell id="x6U_2Op7EyfoT4MYC56a-26" value="" style="ellipse;whiteSpace=wrap;html=1;align=center;aspect=fixed;fillColor=none;strokeColor=none;resizable=0;perimeter=centerPerimeter;rotatable=0;allowArrows=0;points=[];outlineConnect=1;" parent="1" vertex="1">
          <mxGeometry x="1127" y="-656" width="10" height="10" as="geometry" />
        </mxCell>
        <mxCell id="x6U_2Op7EyfoT4MYC56a-28" value="Repozytorium zadań" style="html=1;dropTarget=0;whiteSpace=wrap;" parent="1" vertex="1">
          <mxGeometry x="1581" y="-656" width="180" height="90" as="geometry" />
        </mxCell>
        <mxCell id="x6U_2Op7EyfoT4MYC56a-29" value="" style="shape=module;jettyWidth=8;jettyHeight=4;" parent="x6U_2Op7EyfoT4MYC56a-28" vertex="1">
          <mxGeometry x="1" width="20" height="20" relative="1" as="geometry">
            <mxPoint x="-27" y="7" as="offset" />
          </mxGeometry>
        </mxCell>
        <mxCell id="x6U_2Op7EyfoT4MYC56a-30" value="" style="rounded=0;orthogonalLoop=1;jettySize=auto;html=1;endArrow=halfCircle;endFill=0;endSize=6;strokeWidth=1;sketch=0;exitX=1;exitY=0.5;exitDx=0;exitDy=0;" parent="1" source="x6U_2Op7EyfoT4MYC56a-22" target="x6U_2Op7EyfoT4MYC56a-32" edge="1">
          <mxGeometry relative="1" as="geometry">
            <mxPoint x="1027" y="-516" as="sourcePoint" />
          </mxGeometry>
        </mxCell>
        <mxCell id="x6U_2Op7EyfoT4MYC56a-31" value="" style="rounded=0;orthogonalLoop=1;jettySize=auto;html=1;endArrow=oval;endFill=0;sketch=0;sourcePerimeterSpacing=0;targetPerimeterSpacing=0;endSize=10;exitX=0;exitY=0.5;exitDx=0;exitDy=0;" parent="1" source="x6U_2Op7EyfoT4MYC56a-28" target="x6U_2Op7EyfoT4MYC56a-32" edge="1">
          <mxGeometry relative="1" as="geometry">
            <mxPoint x="1527" y="29" as="sourcePoint" />
          </mxGeometry>
        </mxCell>
        <mxCell id="x6U_2Op7EyfoT4MYC56a-32" value="" style="ellipse;whiteSpace=wrap;html=1;align=center;aspect=fixed;fillColor=none;strokeColor=none;resizable=0;perimeter=centerPerimeter;rotatable=0;allowArrows=0;points=[];outlineConnect=1;" parent="1" vertex="1">
          <mxGeometry x="1517" y="-616" width="10" height="10" as="geometry" />
        </mxCell>
        <mxCell id="x6U_2Op7EyfoT4MYC56a-33" value="" style="rounded=0;orthogonalLoop=1;jettySize=auto;html=1;endArrow=halfCircle;endFill=0;endSize=6;strokeWidth=1;sketch=0;exitX=0.5;exitY=1;exitDx=0;exitDy=0;" parent="1" source="x6U_2Op7EyfoT4MYC56a-3" target="x6U_2Op7EyfoT4MYC56a-35" edge="1">
          <mxGeometry relative="1" as="geometry">
            <mxPoint x="1542" y="-706" as="sourcePoint" />
          </mxGeometry>
        </mxCell>
        <mxCell id="x6U_2Op7EyfoT4MYC56a-34" value="" style="rounded=0;orthogonalLoop=1;jettySize=auto;html=1;endArrow=oval;endFill=0;sketch=0;sourcePerimeterSpacing=0;targetPerimeterSpacing=0;endSize=10;exitX=0.5;exitY=0;exitDx=0;exitDy=0;" parent="1" source="x6U_2Op7EyfoT4MYC56a-22" target="x6U_2Op7EyfoT4MYC56a-35" edge="1">
          <mxGeometry relative="1" as="geometry">
            <mxPoint x="1542" y="-586" as="sourcePoint" />
          </mxGeometry>
        </mxCell>
        <mxCell id="x6U_2Op7EyfoT4MYC56a-35" value="" style="ellipse;whiteSpace=wrap;html=1;align=center;aspect=fixed;fillColor=none;strokeColor=none;resizable=0;perimeter=centerPerimeter;rotatable=0;allowArrows=0;points=[];outlineConnect=1;" parent="1" vertex="1">
          <mxGeometry x="1362" y="-706" width="10" height="10" as="geometry" />
        </mxCell>
        <mxCell id="x6U_2Op7EyfoT4MYC56a-36" value="tworzenie zadań" style="text;html=1;align=center;verticalAlign=middle;whiteSpace=wrap;rounded=0;" parent="1" vertex="1">
          <mxGeometry x="1387" y="-716" width="100" height="30" as="geometry" />
        </mxCell>
        <mxCell id="x6U_2Op7EyfoT4MYC56a-37" value="" style="rounded=0;orthogonalLoop=1;jettySize=auto;html=1;endArrow=halfCircle;endFill=0;endSize=6;strokeWidth=1;sketch=0;exitX=1;exitY=0.25;exitDx=0;exitDy=0;" parent="1" source="x6U_2Op7EyfoT4MYC56a-20" target="x6U_2Op7EyfoT4MYC56a-39" edge="1">
          <mxGeometry relative="1" as="geometry">
            <mxPoint x="1237" y="-811" as="sourcePoint" />
          </mxGeometry>
        </mxCell>
        <mxCell id="x6U_2Op7EyfoT4MYC56a-38" value="" style="rounded=0;orthogonalLoop=1;jettySize=auto;html=1;endArrow=oval;endFill=0;sketch=0;sourcePerimeterSpacing=0;targetPerimeterSpacing=0;endSize=10;exitX=0;exitY=0.5;exitDx=0;exitDy=0;" parent="1" source="x6U_2Op7EyfoT4MYC56a-3" target="x6U_2Op7EyfoT4MYC56a-39" edge="1">
          <mxGeometry relative="1" as="geometry">
            <mxPoint x="1197" y="-811" as="sourcePoint" />
          </mxGeometry>
        </mxCell>
        <mxCell id="x6U_2Op7EyfoT4MYC56a-39" value="" style="ellipse;whiteSpace=wrap;html=1;align=center;aspect=fixed;fillColor=none;strokeColor=none;resizable=0;perimeter=centerPerimeter;rotatable=0;allowArrows=0;points=[];outlineConnect=1;" parent="1" vertex="1">
          <mxGeometry x="1127" y="-766" width="10" height="10" as="geometry" />
        </mxCell>
        <mxCell id="x6U_2Op7EyfoT4MYC56a-41" value="zgłoszenia" style="text;html=1;align=center;verticalAlign=middle;resizable=0;points=[];autosize=1;strokeColor=none;fillColor=none;" parent="1" vertex="1">
          <mxGeometry x="1092" y="-810" width="80" height="30" as="geometry" />
        </mxCell>
        <mxCell id="x6U_2Op7EyfoT4MYC56a-42" value="zadania" style="text;html=1;align=center;verticalAlign=middle;resizable=0;points=[];autosize=1;strokeColor=none;fillColor=none;" parent="1" vertex="1">
          <mxGeometry x="1097" y="-626" width="70" height="30" as="geometry" />
        </mxCell>
        <mxCell id="x6U_2Op7EyfoT4MYC56a-43" value="JpaRepository" style="text;html=1;align=center;verticalAlign=middle;whiteSpace=wrap;rounded=0;" parent="1" vertex="1">
          <mxGeometry x="1482" y="-656" width="80" height="30" as="geometry" />
        </mxCell>
      </root>
    </mxGraphModel>
  </diagram>
</mxfile>
